<svg width="76" height="75" viewBox="0 0 76 75" fill="none" xmlns="http://www.w3.org/2000/svg">
<rect width="75" height="75" fill="white"/>
<path d="M57.3902 49.5007C61.8359 52.1482 64.3211 56.5565 65.0079 58.4297C66.1568 65.5729 61.99 68.6492 59.7629 69.2944C49.2105 71.9793 40.7186 66.2348 39.1575 64.7986C37.9087 63.6497 32.9759 66.5678 30.6656 68.1704C18.2774 72.7161 12.9741 67.5252 11.871 64.3616C8.97377 56.3692 15.6174 51.0825 19.3014 49.4383C21.9989 48.3393 23.589 45.0258 24.0469 43.5064C26.9442 34.515 31.4149 31.0184 33.2881 30.3939C44.1278 26.5476 50.4593 37.533 52.2701 43.5064C53.6188 47.6025 56.2454 49.2094 57.3902 49.5007Z" fill="#040404"/>
<ellipse cx="48.8804" cy="19.9736" rx="8.73071" ry="10.7144" transform="rotate(12.1101 48.8804 19.9736)" fill="#040404"/>
<ellipse cx="13.7886" cy="35.2094" rx="8.73071" ry="10.7144" transform="rotate(-28.5379 13.7886 35.2094)" fill="#040404"/>
<ellipse cx="26.7766" cy="18.849" rx="8.73071" ry="10.7144" transform="rotate(-17.5629 26.7766 18.849)" fill="#040404"/>
<ellipse cx="63.1654" cy="36.526" rx="8.24283" ry="9.90902" transform="rotate(37.1199 63.1654 36.526)" fill="#040404"/>
</svg>
